<svg id="Ebene_1" data-name="Ebene 1" xmlns="http://www.w3.org/2000/svg" viewBox="0 0 1606.23 382.53"><defs><style>.cls-1{fill:#ffcb8e;}.cls-2{fill:#ffa88e;}.cls-3{fill:#ffdbb1;}.cls-4{fill:#2c2f33;}.cls-5{fill:#f3f3f3;}.cls-6{fill:#ff8f6e;}</style></defs><path class="cls-1" d="M940.37,609.53a22,22,0,0,1,1.33,7.14,19.08,19.08,0,0,1-6.81,15,23.22,23.22,0,0,1-15.79,6,18.35,18.35,0,0,1-8.31-2,18.16,18.16,0,0,1-6.64-5.65L832,534.92l-31.57,30.24v52.18q0,9-5.81,14.62t-15.12,5.65a20,20,0,0,1-14.79-5.82,19.59,19.59,0,0,1-5.82-14.45V425.26a19.36,19.36,0,0,1,6-14.46q6-5.81,15.28-5.82,9,0,14.62,5.65t5.65,14.63v90.39L906.81,411q7.63-7.65,16.28-7.65,7.65,0,13,6.32t5.32,13.29q0,7-6,13L862.94,505l74.11,98A23.73,23.73,0,0,1,940.37,609.53Z" transform="translate(-179.57 -319.31)"/><path class="cls-2" d="M1183.3,581.61A112,112,0,0,1,1142.92,625q-25.76,16-58,15.95t-58-15.95a110.74,110.74,0,0,1-40.21-43.37q-14.46-27.4-14.45-60.31T986.73,461a110.81,110.81,0,0,1,40.21-43.37q25.75-15.94,58-15.95t58,15.95A112,112,0,0,1,1183.3,461q14.63,27.42,14.62,60.32T1183.3,581.61Zm-37.55-100.69a72.49,72.49,0,0,0-24.93-28.75,63.32,63.32,0,0,0-35.89-10.63q-20.27,0-36,10.47a70.2,70.2,0,0,0-24.6,28.74q-8.81,18.28-8.8,40.55t8.8,40.54a70.16,70.16,0,0,0,24.6,28.75q15.76,10.47,36,10.46a63.24,63.24,0,0,0,35.89-10.63,72.35,72.35,0,0,0,24.93-28.75q9-18.1,9-40.37T1145.75,480.92Z" transform="translate(-179.57 -319.31)"/><path class="cls-2" d="M1442.67,612a17.74,17.74,0,0,1,2.5,9,17.15,17.15,0,0,1-4,11q-5,6-15.29,6a29.78,29.78,0,0,1-14.62-3.65q-23.93-13.62-23.93-55.5,0-12-7.81-18.94t-22.43-7H1295v64.47q0,9-4.82,14.62a16,16,0,0,1-12.8,5.65,25.74,25.74,0,0,1-16.78-5.82,17.89,17.89,0,0,1-7.14-14.45V425.26A19.87,19.87,0,0,1,1273.69,405h95.71a61.63,61.63,0,0,1,32.56,9.31,68.78,68.78,0,0,1,24.43,25.59,73.42,73.42,0,0,1,9.14,36.55,64.83,64.83,0,0,1-9,32.41,71.56,71.56,0,0,1-23.27,25.09q20.94,14.63,22.93,39.21a55.47,55.47,0,0,1,1,10.3,104.27,104.27,0,0,0,2.66,14.79,10.88,10.88,0,0,0,6,6.81A19.62,19.62,0,0,1,1442.67,612Zm-63.3-99a43.08,43.08,0,0,0,9.3-15.12,56.25,56.25,0,0,0,3.66-20.44,39.79,39.79,0,0,0-3.66-17.11,35.24,35.24,0,0,0-9.3-12.47q-5.65-4.65-11.64-4.65H1295v75.44h72.77Q1373.72,518.64,1379.37,513Z" transform="translate(-179.57 -319.31)"/><path class="cls-2" d="M1681.45,517.81a20,20,0,0,1,5.65,14.45v70.46q0,11.63-10.31,17.94a132.51,132.51,0,0,1-71.44,20.27,121.76,121.76,0,0,1-105-59.65,118.65,118.65,0,0,1,0-120,120.77,120.77,0,0,1,44.2-43.53,119.56,119.56,0,0,1,60.82-16.12q32.89,0,57.15,13.29a18,18,0,0,1,10,16.29,21,21,0,0,1-5.48,14.45,17.3,17.3,0,0,1-13.46,6.15,27.1,27.1,0,0,1-11-2.66,94.21,94.21,0,0,0-37.22-7.64,74.66,74.66,0,0,0-39.22,10.8,80.47,80.47,0,0,0,0,137.91,74.57,74.57,0,0,0,39.22,10.8,129.49,129.49,0,0,0,19.94-1.66,114.12,114.12,0,0,0,18.6-4.32v-43.2h-31.23a19.9,19.9,0,0,1-14.46-5.65,20.45,20.45,0,0,1,0-28.58,19.94,19.94,0,0,1,14.46-5.65h54.5A19.08,19.08,0,0,1,1681.45,517.81Z" transform="translate(-179.57 -319.31)"/><path class="cls-1" d="M1779.48,631.79a20.91,20.91,0,0,1-14.62,5.82,20,20,0,0,1-14.79-5.82,19.58,19.58,0,0,1-5.81-14.45V425.26a19.35,19.35,0,0,1,6-14.46q6-5.81,15.28-5.82a19.8,19.8,0,0,1,14.29,5.82,19.36,19.36,0,0,1,6,14.46V617.34A18.83,18.83,0,0,1,1779.48,631.79Z" transform="translate(-179.57 -319.31)"/><rect class="cls-2" width="455.48" height="382.53" rx="29.73"/><path class="cls-2" d="M684.33,319.33a6.38,6.38,0,0,1,5.52,9.57l-27.62,47.84-27.62,47.85a6.38,6.38,0,0,1-11.05,0l-27.62-47.85L568.31,328.9a6.38,6.38,0,0,1,5.53-9.57H684.33Z" transform="translate(-179.57 -319.31)"/><path class="cls-1" d="M362.36,434.88c-37.87-37.25-77.15-62.91-94-53.2-19.31,11.15-10.83,70,26.76,144.77" transform="translate(-179.57 -319.31)"/><path class="cls-1" d="M452.25,434.88c37.88-37.25,77.16-62.91,94-53.2,19.31,11.15,10.83,70-26.76,144.77" transform="translate(-179.57 -319.31)"/><path class="cls-3" d="M352.11,444.36c-27.48-27-56-45.64-68.17-38.6-14,8.09-7.86,50.77,19.41,105" transform="translate(-179.57 -319.31)"/><path class="cls-3" d="M462.51,444.36c27.48-27,56-45.64,68.17-38.6,14,8.09,7.85,50.77-19.41,105" transform="translate(-179.57 -319.31)"/><path class="cls-1" d="M530.62,579c0,92-246.63,92-246.63,0,0-.29,0-.58,0-.87.12-33.22,7.44-64.14,20-90.06a166.72,166.72,0,0,1,17.4-28.56c22.21-29.18,52.53-47.14,85.95-47.14C475.41,412.34,530.62,486.94,530.62,579Z" transform="translate(-179.57 -319.31)"/><circle class="cls-4" cx="174.15" cy="182.77" r="16.46"/><circle class="cls-5" cx="170.6" cy="177.28" r="5.17"/><circle class="cls-4" cx="281.33" cy="182.77" r="16.46"/><circle class="cls-5" cx="277.77" cy="177.28" r="5.17"/><ellipse class="cls-3" cx="227.74" cy="259.6" rx="70.71" ry="56.49"/><ellipse class="cls-3" cx="227.74" cy="205.28" rx="18.38" ry="60.04"/><path class="cls-4" d="M422.8,545.41C426.52,552.6,418,568,407,567.83c-10.86-.16-18.66-16.61-15.19-22.42C396.33,536.62,418.47,537.05,422.8,545.41Z" transform="translate(-179.57 -319.31)"/><path class="cls-4" d="M407.31,605.7" transform="translate(-179.57 -319.31)"/><path class="cls-2" d="M407.31,594.38a33.62,33.62,0,0,1-17.57-4.92c0,.49,0,1,0,1.48,0,16.34,7.87,29.59,17.59,29.59s17.59-13.25,17.59-29.59c0-.49,0-1,0-1.48A33.62,33.62,0,0,1,407.31,594.38Z" transform="translate(-179.57 -319.31)"/><path class="cls-6" d="M404.31,596.34v13.88a3,3,0,0,0,6,0V596.34a3,3,0,0,0-6,0Z" transform="translate(-179.57 -319.31)"/><path class="cls-4" d="M365.65,584.73a52.42,52.42,0,0,0,7.79,4.33,81.34,81.34,0,0,0,21.5,6.8c15.79,2.57,32.86.38,47.22-6.87a37.41,37.41,0,0,0,7.71-5,4.52,4.52,0,0,0,0-6.37,4.61,4.61,0,0,0-6.36,0c-.09.08-.27.17-.33.27s1.18-.87.47-.36L443,578a39.85,39.85,0,0,1-3.89,2.4c-1,.54-2,1-3,1.52l-1.64.74c-.52.23.91-.38.37-.16l-.48.2-1.11.44a71.08,71.08,0,0,1-9.36,2.84q-2.78.64-5.6,1.08l-1.55.23c1-.13-.58.07-.81.09-1.11.13-2.23.24-3.35.32a76,76,0,0,1-13.66-.3c-.72-.07.7.11,0,0l-.81-.11-1.38-.23q-1.62-.27-3.24-.63-2.78-.6-5.5-1.4c-1.7-.51-3.39-1.07-5.05-1.68l-2.14-.83c-.14-.06-1.38-.52-.67-.27s-.52-.24-.73-.33a54.57,54.57,0,0,1-9.21-5,4.53,4.53,0,0,0-6.16,1.61,4.62,4.62,0,0,0,1.61,6.16Z" transform="translate(-179.57 -319.31)"/></svg>