<svg id="Ebene_1" data-name="Ebene 1" xmlns="http://www.w3.org/2000/svg" viewBox="0 0 1648.43 418.99"><defs><style>.cls-1{font-size:332.32px;font-family:Quicksand-Bold, Quicksand;font-weight:700;letter-spacing:0.02em;}.cls-1,.cls-7{fill:#ffcb8e;}.cls-2,.cls-3,.cls-4,.cls-6{fill:#ffa88e;}.cls-2,.cls-5{letter-spacing:0.05em;}.cls-3{letter-spacing:0.04em;}.cls-4{letter-spacing:0.05em;}.cls-8{fill:#ffdbb1;}.cls-9{fill:#2c2f33;}.cls-10{fill:#f3f3f3;}.cls-11{fill:#ff8f6e;}</style></defs><text class="cls-1" transform="translate(554.43 318.3)">K<tspan class="cls-2" x="224.98" y="0">O</tspan><tspan class="cls-3" x="494.49" y="0">R</tspan><tspan class="cls-4" x="736.76" y="0">G</tspan><tspan class="cls-5" x="985.33" y="0">I</tspan></text><rect class="cls-6" width="455.48" height="382.53" rx="29.73"/><path class="cls-6" d="M684.33,319.33a6.38,6.38,0,0,1,5.52,9.57l-27.62,47.84-27.62,47.85a6.38,6.38,0,0,1-11.05,0l-27.62-47.85L568.31,328.9a6.38,6.38,0,0,1,5.53-9.57H684.33Z" transform="translate(-179.57 -319.31)"/><path class="cls-7" d="M362.36,434.88c-37.87-37.25-77.15-62.91-94-53.2-19.31,11.15-10.83,70,26.76,144.77" transform="translate(-179.57 -319.31)"/><path class="cls-7" d="M452.25,434.88c37.88-37.25,77.16-62.91,94-53.2,19.31,11.15,10.83,70-26.76,144.77" transform="translate(-179.57 -319.31)"/><path class="cls-8" d="M352.11,444.36c-27.48-27-56-45.64-68.17-38.6-14,8.09-7.86,50.77,19.41,105" transform="translate(-179.57 -319.31)"/><path class="cls-8" d="M462.51,444.36c27.48-27,56-45.64,68.17-38.6,14,8.09,7.85,50.77-19.41,105" transform="translate(-179.57 -319.31)"/><path class="cls-7" d="M530.62,579c0,92-246.63,92-246.63,0,0-.29,0-.58,0-.87.12-33.22,7.44-64.14,20-90.06a166.72,166.72,0,0,1,17.4-28.56c22.21-29.18,52.53-47.14,85.95-47.14C475.41,412.34,530.62,486.94,530.62,579Z" transform="translate(-179.57 -319.31)"/><circle class="cls-9" cx="174.15" cy="182.77" r="16.46"/><circle class="cls-10" cx="170.6" cy="177.28" r="5.17"/><circle class="cls-9" cx="281.33" cy="182.77" r="16.46"/><circle class="cls-10" cx="277.77" cy="177.28" r="5.17"/><ellipse class="cls-8" cx="227.74" cy="259.6" rx="70.71" ry="56.49"/><ellipse class="cls-8" cx="227.74" cy="205.28" rx="18.38" ry="60.04"/><path class="cls-9" d="M422.8,545.41C426.52,552.6,418,568,407,567.83c-10.86-.16-18.66-16.61-15.19-22.42C396.33,536.62,418.47,537.05,422.8,545.41Z" transform="translate(-179.57 -319.31)"/><path class="cls-9" d="M407.31,605.7" transform="translate(-179.57 -319.31)"/><path class="cls-6" d="M407.31,594.38a33.62,33.62,0,0,1-17.57-4.92c0,.49,0,1,0,1.48,0,16.34,7.87,29.59,17.59,29.59s17.59-13.25,17.59-29.59c0-.49,0-1,0-1.48A33.62,33.62,0,0,1,407.31,594.38Z" transform="translate(-179.57 -319.31)"/><path class="cls-11" d="M404.31,596.34v13.88a3,3,0,0,0,6,0V596.34a3,3,0,0,0-6,0Z" transform="translate(-179.57 -319.31)"/><path class="cls-9" d="M365.65,584.73a52.42,52.42,0,0,0,7.79,4.33,81.34,81.34,0,0,0,21.5,6.8c15.79,2.57,32.86.38,47.22-6.87a37.41,37.41,0,0,0,7.71-5,4.52,4.52,0,0,0,0-6.37,4.61,4.61,0,0,0-6.36,0c-.09.08-.27.17-.33.27s1.18-.87.47-.36L443,578a39.85,39.85,0,0,1-3.89,2.4c-1,.54-2,1-3,1.52l-1.64.74c-.52.23.91-.38.37-.16l-.48.2-1.11.44a71.08,71.08,0,0,1-9.36,2.84q-2.78.64-5.6,1.08l-1.55.23c1-.13-.58.07-.81.09-1.11.13-2.23.24-3.35.32a76,76,0,0,1-13.66-.3c-.72-.07.7.11,0,0l-.81-.11-1.38-.23q-1.62-.27-3.24-.63-2.78-.6-5.5-1.4c-1.7-.51-3.39-1.07-5.05-1.68l-2.14-.83c-.14-.06-1.38-.52-.67-.27s-.52-.24-.73-.33a54.57,54.57,0,0,1-9.21-5,4.53,4.53,0,0,0-6.16,1.61,4.62,4.62,0,0,0,1.61,6.16Z" transform="translate(-179.57 -319.31)"/></svg>