<svg id="Ebene_1" data-name="Ebene 1" xmlns="http://www.w3.org/2000/svg" viewBox="0 0 297.86 268.38"><defs><style>.cls-1{fill:#ffcb8e;}.cls-2{fill:#ffdbb1;}.cls-3{fill:#2c2f33;}.cls-4{fill:#f3f3f3;}.cls-5{fill:#ffa88e;}.cls-6{fill:#ff8f6e;}</style></defs><path class="cls-1" d="M915.05,461.08c-37.87-37.26-77.15-62.91-94-53.2-19.31,11.15-10.83,70,26.76,144.76" transform="translate(-811.07 -405.81)"/><path class="cls-1" d="M1005,461.08c37.87-37.26,77.15-62.91,94-53.2,19.31,11.15,10.83,70-26.76,144.76" transform="translate(-811.07 -405.81)"/><path class="cls-2" d="M904.8,470.55c-27.48-27-56-45.63-68.17-38.59-14,8.09-7.86,50.76,19.41,105" transform="translate(-811.07 -405.81)"/><path class="cls-2" d="M1015.2,470.55c27.48-27,56-45.63,68.17-38.59,14,8.09,7.86,50.76-19.41,105" transform="translate(-811.07 -405.81)"/><path class="cls-1" d="M1083.31,605.17c0,92-246.62,92-246.62,0v-.88c.12-33.21,7.44-64.13,20-90.06a167,167,0,0,1,17.4-28.55c22.21-29.18,52.53-47.15,86-47.15C1028.1,438.53,1083.31,513.14,1083.31,605.17Z" transform="translate(-811.07 -405.81)"/><circle class="cls-3" cx="95.34" cy="122.46" r="16.46"/><circle class="cls-4" cx="91.79" cy="116.98" r="5.17"/><circle class="cls-3" cx="202.52" cy="122.46" r="16.46"/><circle class="cls-4" cx="198.97" cy="116.98" r="5.17"/><ellipse class="cls-2" cx="148.93" cy="199.29" rx="70.71" ry="56.49"/><ellipse class="cls-2" cx="148.93" cy="144.97" rx="18.38" ry="60.04"/><path class="cls-3" d="M975.49,571.6c3.72,7.2-4.77,22.6-15.83,22.43-10.87-.16-18.67-16.61-15.2-22.43C949,562.82,971.16,563.25,975.49,571.6Z" transform="translate(-811.07 -405.81)"/><path class="cls-3" d="M960,631.9" transform="translate(-811.07 -405.81)"/><path class="cls-5" d="M960,620.58a33.62,33.62,0,0,1-17.57-4.92c0,.49,0,1,0,1.48,0,16.34,7.87,29.59,17.59,29.59s17.59-13.25,17.59-29.59c0-.5,0-1,0-1.48A33.62,33.62,0,0,1,960,620.58Z" transform="translate(-811.07 -405.81)"/><path class="cls-6" d="M957,622.54v13.88a3,3,0,1,0,6,0V622.54a3,3,0,0,0-6,0Z" transform="translate(-811.07 -405.81)"/><path class="cls-3" d="M918.35,610.93a50.9,50.9,0,0,0,7.78,4.32,81.36,81.36,0,0,0,21.5,6.81c15.79,2.57,32.86.37,47.22-6.88a37.33,37.33,0,0,0,7.72-5,4.53,4.53,0,0,0,0-6.36,4.63,4.63,0,0,0-6.37,0c-.09.08-.27.17-.33.27s1.18-.88.47-.37l-.63.46a38.69,38.69,0,0,1-3.89,2.4c-1,.54-2,1-3,1.52l-1.64.73c-.52.24.91-.37.37-.15l-.48.19-1.11.44a71.12,71.12,0,0,1-9.36,2.85q-2.77.64-5.6,1.08l-1.55.23c1-.14-.57.06-.81.09-1.11.13-2.23.23-3.35.32a75.91,75.91,0,0,1-13.65-.3c-.72-.07.69.11,0,0l-.8-.12-1.39-.22q-1.62-.27-3.24-.63-2.78-.6-5.5-1.4c-1.7-.51-3.39-1.07-5.05-1.69-.72-.26-1.43-.54-2.14-.82-.14-.06-1.38-.52-.66-.28s-.53-.23-.74-.32a54.57,54.57,0,0,1-9.21-5,4.53,4.53,0,0,0-6.16,1.61,4.61,4.61,0,0,0,1.62,6.16Z" transform="translate(-811.07 -405.81)"/></svg>