<?xml version="1.0" encoding="iso-8859-1"?>
<!-- Generator: Adobe Illustrator 18.0.0, SVG Export Plug-In . SVG Version: 6.00 Build 0)  -->
<!DOCTYPE svg PUBLIC "-//W3C//DTD SVG 1.1//EN" "http://www.w3.org/Graphics/SVG/1.1/DTD/svg11.dtd">
<svg version="1.1" id="Capa_1" xmlns="http://www.w3.org/2000/svg" xmlns:xlink="http://www.w3.org/1999/xlink" x="0px" y="0px"
	 viewBox="0 0 472.566 472.566" style="enable-background:new 0 0 472.566 472.566;" xml:space="preserve">
<path d="M472.114,87.078c-0.1-4.121-2.004-7.962-5.224-10.536c-3.219-2.574-7.382-3.588-11.426-2.779l-39.031,7.806l-4.88-6.603
	c-7.715-10.439-21.508-14.379-33.569-9.6l-27.762,10.349L322.968,58.9c-2.705-1.668-6.166-1.452-8.641,0.54
	c-2.475,1.992-3.426,5.328-2.375,8.326l14.037,40.005c-5.216,29.09-17.897,71.326-30.792,77.774
	c-18.841,9.42-110.536,25.316-203.071,17.016c-29.835-2.676-68.552,21.209-68.552,21.209c-17.657,6.879-27.23,25.858-22.269,44.147
	l12.617,46.509c1.533,14.413,5.863,29.572,15.4,42.646l3.903,23.417c1.502,9.017,6.933,16.76,14.9,21.243l21.479,12.086
	c1.142,0.643,2.41,0.964,3.678,0.964c1.268,0,2.536-0.321,3.677-0.963l16.383-9.215c2.008-1.13,3.386-3.12,3.736-5.397
	c0.351-2.277-0.365-4.589-1.941-6.27l-13.444-14.34l-0.56-14.555c13.704,2.289,41.357,6.545,74.182,9.625
	c58.817,5.52,107.326,5.037,144.381-1.421c1.566,8.508,7.145,15.791,14.966,19.505l31.869,15.138
	c1.009,0.479,2.109,0.726,3.218,0.726c0.341,0,0.684-0.023,1.025-0.07l29.694-4.096c2.363-0.326,4.431-1.757,5.568-3.854
	s1.209-4.61,0.193-6.769c-6.109-12.983-16.849-22.969-30.241-28.12l-1.689-0.65l4.788-12.569
	c42.849-24.777,68.428-72.259,65.337-121.799l-4.448-71.294l35.545-21.874c10.817-6.657,17.345-18.68,17.035-31.378L472.114,87.078z
	 M29.019,237.747l1.292-0.503c-8.068,11.436-10.899,20.951-11.341,22.569c-0.245,0.807-1.106,3.745-2.089,8.23l-1.099-4.052
	C12.832,253.118,18.522,241.837,29.019,237.747z M447.659,123.745l-22.935,14.114c-9.466,5.823-20.336,8.606-31.436,8.052
	l-1.184-0.059c-4.117-0.2-7.658,2.98-7.865,7.117c-0.207,4.137,2.98,7.658,7.117,7.865c0,0,3.539,0.147,4.714,0.147
	c3.025,0,6.029-0.203,9.001-0.589l4.382,70.231c2.305,36.939-13.393,72.584-41.055,96.032c0.609-3.47-1.301-6.996-4.716-8.297
	c-3.87-1.473-8.204,0.468-9.679,4.339l-16.383,43.006c-1.471,3.862,0.459,8.187,4.316,9.67l8.667,3.333
	c6.371,2.45,11.918,6.401,16.243,11.48l-15.903,2.193l-29.846-14.176c-3.502-1.664-5.996-4.937-6.67-8.756
	c-2.636-14.936-1.107-30.296,4.419-44.419c1.509-3.857-0.394-8.208-4.251-9.717c-3.856-1.508-8.208,0.394-9.717,4.251
	c-4.717,12.053-6.955,24.869-6.669,37.708c-61.701,11-146.719,1.879-192.066-4.567c7.55-4.334,14.374-9.994,20.185-16.839
	c13.322-15.693,19.645-35.627,17.801-56.13c-0.371-4.126-4.024-7.169-8.141-6.798c-4.125,0.371-7.169,4.016-6.798,8.141
	c1.48,16.466-3.597,32.476-14.297,45.08s-25.673,20.212-42.162,21.425c-0.037,0.003-0.07,0.015-0.106,0.02
	c-1.55,0.136-3.039,0.742-4.242,1.781c-1.729,1.491-2.684,3.687-2.597,5.968l1.024,26.623c0.069,1.805,0.788,3.524,2.023,4.841
	l8.818,9.406l-4.369,2.458L55.481,388.66c-3.989-2.245-6.708-6.121-7.46-10.636l-4.204-25.22c-0.203-1.219-0.705-2.37-1.459-3.348
	c-24.895-32.271-9.171-84.84-9.012-85.359c0.036-0.115,0.068-0.23,0.098-0.347c0.063-0.246,6.643-24.75,35.084-41.499
	c6.566-3.867,14.398-5.559,22.056-4.77c93.442,9.664,188.613-7.166,211.322-18.521c11.422-5.711,21.189-22.5,29.859-51.328
	c2.189-7.279,4-14.329,5.428-20.403c3.635,2.922,8.016,4.925,12.797,5.69l13.935,2.229c0.401,0.064,0.8,0.095,1.194,0.095
	c3.62,0,6.806-2.627,7.396-6.316c0.654-4.09-2.131-7.936-6.221-8.591l-13.935-2.229c-4.474-0.716-8.184-3.816-9.684-8.09
	l-9.554-27.229l30.096,18.57c3.526,2.175,8.146,1.08,10.321-2.445c2.175-3.525,1.081-8.146-2.444-10.321l-4.7-2.9l16.906-6.302
	c0.056-0.021,0.111-0.042,0.166-0.064c5.753-2.301,12.342-0.428,16.024,4.554l1.283,1.735l-3.936,1.125
	c-3.982,1.138-6.289,5.289-5.151,9.272c0.941,3.294,3.944,5.442,7.208,5.442c0.682,0,1.376-0.094,2.064-0.291l56.192-12.442
	l0.41,16.785C457.74,112.888,453.946,119.876,447.659,123.745z"/>
<g>
</g>
<g>
</g>
<g>
</g>
<g>
</g>
<g>
</g>
<g>
</g>
<g>
</g>
<g>
</g>
<g>
</g>
<g>
</g>
<g>
</g>
<g>
</g>
<g>
</g>
<g>
</g>
<g>
</g>
</svg>
