<svg id="Ebene_1" data-name="Ebene 1" xmlns="http://www.w3.org/2000/svg" viewBox="0 0 1580 407.03"><defs><style>.cls-1{font-size:326.55px;font-family:Quicksand-Bold, Quicksand;font-weight:700;letter-spacing:0.02em;}.cls-1,.cls-4{fill:#ffcb8e;}.cls-2{letter-spacing:0.05em;}.cls-3{letter-spacing:0.04em;}.cls-5{fill:#ffdbb1;}.cls-6{fill:#2c2f33;}.cls-7{fill:#f3f3f3;}.cls-8{fill:#ffa88e;}.cls-9{fill:#ff8f6e;}</style></defs><text class="cls-1" transform="translate(505 308.09)">K<tspan class="cls-2" x="221.08" y="0">O</tspan><tspan class="cls-3" x="485.9" y="0">R</tspan><tspan class="cls-2" x="723.96" y="0">G</tspan><tspan class="cls-2" x="968.22" y="0">I</tspan></text><path class="cls-4" d="M309.38,398.35C258.61,348.41,206,314,183.42,327c-25.89,14.94-14.52,93.8,35.86,194" transform="translate(-170 -324.27)"/><path class="cls-4" d="M429.86,398.35c50.77-49.94,103.41-84.32,126-71.31,25.89,14.94,14.52,93.8-35.86,194" transform="translate(-170 -324.27)"/><path class="cls-5" d="M295.63,411.05c-36.83-36.22-75-61.17-91.37-51.73-18.78,10.84-10.53,68,26,140.76" transform="translate(-170 -324.27)"/><path class="cls-5" d="M443.61,411.05c36.83-36.22,75-61.17,91.37-51.73,18.78,10.84,10.53,68-26,140.76" transform="translate(-170 -324.27)"/><path class="cls-4" d="M534.91,591.48c0,123.35-330.58,123.35-330.58,0,0-.39,0-.78,0-1.17.17-44.53,10-86,26.75-120.71a224,224,0,0,1,23.33-38.28c29.77-39.11,70.4-63.19,115.2-63.19C460.9,368.13,534.91,468.13,534.91,591.48Z" transform="translate(-170 -324.27)"/><circle class="cls-6" cx="127.79" cy="164.15" r="22.07"/><circle class="cls-7" cx="123.03" cy="156.79" r="6.92"/><circle class="cls-6" cx="271.45" cy="164.15" r="22.07"/><circle class="cls-7" cx="266.69" cy="156.79" r="6.92"/><ellipse class="cls-5" cx="199.62" cy="267.12" rx="94.78" ry="75.72"/><ellipse class="cls-5" cx="199.62" cy="194.31" rx="24.63" ry="80.48"/><path class="cls-6" d="M390.38,546.49c5,9.64-6.39,30.28-21.22,30.06-14.56-.21-25-22.26-20.37-30.06C354.91,534.71,384.58,535.3,390.38,546.49Z" transform="translate(-170 -324.27)"/><path class="cls-6" d="M369.62,627.31" transform="translate(-170 -324.27)"/><path class="cls-8" d="M369.62,612.14a45.09,45.09,0,0,1-23.55-6.6c0,.66,0,1.32,0,2,0,21.9,10.56,39.65,23.58,39.65s23.58-17.75,23.58-39.65c0-.67,0-1.33,0-2A45.09,45.09,0,0,1,369.62,612.14Z" transform="translate(-170 -324.27)"/><path class="cls-9" d="M366.62,614.76v18.61a3,3,0,0,0,6,0V614.76a3,3,0,0,0-6,0Z" transform="translate(-170 -324.27)"/><path class="cls-6" d="M314.56,597.88a69.66,69.66,0,0,0,10.45,5.8,107.46,107.46,0,0,0,28.35,9A93.79,93.79,0,0,0,372.43,614a125.92,125.92,0,0,0,18.67-2.17,94.61,94.61,0,0,0,24.45-8.23,48.67,48.67,0,0,0,10-6.42,4.53,4.53,0,0,0,0-6.36,4.61,4.61,0,0,0-6.36,0c-.15.13-.3.24-.45.36-.58.49,1.25-.93.31-.24-.27.2-.54.4-.82.59a52.3,52.3,0,0,1-5.3,3.26c-1.29.71-2.62,1.38-4,2-.77.36-1.54.69-2.31,1-.56.25,1.1-.46.25-.11l-.72.3-1.37.54a94.56,94.56,0,0,1-12.65,3.84q-3.78.87-7.62,1.47l-2,.28c1.07-.15-.26,0-.4.05l-.81.1c-1.53.17-3.06.32-4.6.44a94,94,0,0,1-18.67-.42c-.89-.11-.2,0,0,0l-1.2-.17-2-.32c-1.41-.24-2.81-.52-4.21-.82q-3.76-.81-7.46-1.91-3.36-1-6.65-2.21c-1-.37-2-.76-3-1.16l-.68-.28c-.35-.14-1-.62,0,0a11,11,0,0,0-1.4-.61,73.25,73.25,0,0,1-12.48-6.73,4.52,4.52,0,0,0-6.15,1.61,4.62,4.62,0,0,0,1.61,6.16Z" transform="translate(-170 -324.27)"/></svg>