<?xml version="1.0" encoding="utf-8"?>
<!-- Generator: Adobe Illustrator 25.0.1, SVG Export Plug-In . SVG Version: 6.00 Build 0)  -->
<svg version="1.1" id="Ebene_1" xmlns="http://www.w3.org/2000/svg" xmlns:xlink="http://www.w3.org/1999/xlink" x="0px" y="0px"
	 viewBox="0 0 1580 407" style="enable-background:new 0 0 1580 407;" xml:space="preserve">
<style type="text/css">
	.st0{enable-background:new    ;}
	.st1{fill:#FFCB8E;}
	.st2{fill:#FFDBB1;}
	.st3{fill:#2C2F33;}
	.st4{fill:#F3F3F3;}
	.st5{fill:#FFA88E;}
	.st6{fill:#FF8F6E;}
</style>
<g class="st0">
	<path class="st1" d="M707.8,280.5c0.9,2.5,1.3,4.8,1.3,7c0,5.9-2.2,10.8-6.7,14.7c-4.5,3.9-9.6,5.9-15.5,5.9c-2.8,0-5.6-0.7-8.2-2
		c-2.6-1.3-4.8-3.2-6.5-5.6l-70.9-93.4l-31,29.7v51.3c0,5.9-1.9,10.7-5.7,14.4c-3.8,3.7-8.8,5.6-14.9,5.6c-5.9,0-10.7-1.9-14.5-5.7
		c-3.8-3.8-5.7-8.5-5.7-14.2V99.4c0-5.7,2-10.4,5.9-14.2c3.9-3.8,8.9-5.7,15-5.7c5.9,0,10.7,1.9,14.4,5.6c3.7,3.7,5.6,8.5,5.6,14.4
		v88.8L674.8,85.4c5-5,10.3-7.5,16-7.5c5,0,9.3,2.1,12.7,6.2c3.5,4.1,5.2,8.5,5.2,13.1c0,4.6-2,8.8-5.9,12.7l-71.2,67.9l72.8,96.3
		C705.8,275.9,706.9,278,707.8,280.5z"/>
</g>
<g class="st0">
	<path class="st1" d="M946.5,253.1c-9.6,18-22.8,32.2-39.7,42.6c-16.9,10.5-35.9,15.7-57,15.7c-21.1,0-40.1-5.2-57-15.7
		c-16.9-10.4-30-24.7-39.5-42.6c-9.5-18-14.2-37.7-14.2-59.3c0-21.6,4.7-41.3,14.2-59.3c9.5-18,22.6-32.2,39.5-42.6
		c16.9-10.5,35.9-15.7,57-15.7c21.1,0,40.1,5.2,57,15.7c16.9,10.4,30.1,24.7,39.7,42.6c9.6,18,14.4,37.7,14.4,59.3
		C960.9,215.3,956.1,235.1,946.5,253.1z M909.6,154.1c-5.9-11.9-14-21.3-24.5-28.2c-10.4-7-22.2-10.4-35.3-10.4
		c-13.3,0-25.1,3.4-35.4,10.3c-10.3,6.9-18.4,16.3-24.2,28.2c-5.8,12-8.7,25.3-8.7,39.8c0,14.6,2.9,27.9,8.7,39.8
		c5.8,12,13.8,21.4,24.2,28.2c10.3,6.9,22.1,10.3,35.4,10.3c13.1,0,24.8-3.5,35.3-10.4c10.5-7,18.6-16.4,24.5-28.2
		c5.9-11.9,8.8-25.1,8.8-39.7C918.4,179.2,915.5,166,909.6,154.1z"/>
</g>
<g class="st0">
	<path class="st1" d="M1201.4,282.9c1.6,2.8,2.4,5.8,2.4,8.8c0,3.9-1.3,7.5-3.9,10.8c-3.3,3.9-8.3,5.9-15,5.9
		c-5.2,0-10-1.2-14.4-3.6c-15.7-8.9-23.5-27.1-23.5-54.5c0-7.8-2.6-14-7.7-18.6c-5.1-4.6-12.5-6.9-22-6.9h-61.1v63.4
		c0,5.9-1.6,10.7-4.7,14.4c-3.2,3.7-7.3,5.6-12.6,5.6c-6.3,0-11.8-1.9-16.5-5.7c-4.7-3.8-7-8.5-7-14.2V99.4c0-5.7,1.9-10.4,5.7-14.2
		c3.8-3.8,8.5-5.7,14.2-5.7h94c11.3,0,22,3.1,32,9.1c10,6.1,18,14.5,24,25.1c6,10.7,9,22.6,9,35.9c0,10.9-2.9,21.5-8.8,31.8
		c-5.9,10.3-13.5,18.6-22.9,24.7c13.7,9.6,21.2,22.4,22.5,38.5c0.7,3.5,1,6.9,1,10.1c0.9,6.8,1.7,11.6,2.6,14.5
		c0.9,2.9,2.8,5.2,5.9,6.7C1197.5,277.8,1199.7,280.1,1201.4,282.9z M1139.2,185.6c3.7-3.7,6.7-8.7,9.1-14.9
		c2.4-6.2,3.6-12.9,3.6-20.1c0-6.1-1.2-11.7-3.6-16.8c-2.4-5.1-5.4-9.2-9.1-12.2c-3.7-3-7.5-4.6-11.4-4.6h-71.5v74.1h71.5
		C1131.6,191.2,1135.4,189.3,1139.2,185.6z"/>
</g>
<g class="st0">
	<path class="st1" d="M1436,190.4c3.7,3.8,5.6,8.5,5.6,14.2v69.2c0,7.6-3.4,13.5-10.1,17.6c-21.3,13.3-44.7,19.9-70.2,19.9
		c-21.6,0-41.5-5.3-59.8-15.8c-18.3-10.6-32.8-24.8-43.4-42.8c-10.7-18-16-37.6-16-58.9c0-21.3,5.3-41,16-58.9
		c10.7-18,25.1-32.2,43.4-42.8c18.3-10.6,38.2-15.8,59.8-15.8s40.3,4.4,56.2,13.1c3.3,1.7,5.7,4,7.3,6.9c1.6,2.8,2.4,5.9,2.4,9.1
		c0,5.4-1.8,10.2-5.4,14.2c-3.6,4-8,6-13.2,6c-3.3,0-6.9-0.9-10.8-2.6c-11.8-5-24-7.5-36.6-7.5c-13.9,0-26.8,3.5-38.5,10.6
		c-11.8,7.1-21.1,16.6-27.9,28.6c-6.9,12-10.3,25-10.3,39.2c0,14.2,3.4,27.2,10.3,39.2c6.9,12,16.2,21.5,27.9,28.6
		c11.8,7.1,24.6,10.6,38.5,10.6c6.1,0,12.6-0.5,19.6-1.6c7-1.1,13.1-2.5,18.3-4.2v-42.5h-30.7c-5.7,0-10.4-1.8-14.2-5.6
		c-3.8-3.7-5.7-8.4-5.7-14c0-5.7,1.9-10.3,5.7-14c3.8-3.7,8.5-5.6,14.2-5.6h53.6C1427.6,184.7,1432.3,186.6,1436,190.4z"/>
</g>
<g class="st0">
	<path class="st1" d="M1532.3,302.4c-4.1,3.8-8.9,5.7-14.4,5.7c-5.9,0-10.7-1.9-14.5-5.7c-3.8-3.8-5.7-8.5-5.7-14.2V99.4
		c0-5.7,2-10.4,5.9-14.2c3.9-3.8,8.9-5.7,15-5.7c5.4,0,10.1,1.9,14,5.7c3.9,3.8,5.9,8.5,5.9,14.2v188.7
		C1538.5,293.8,1536.5,298.6,1532.3,302.4z"/>
</g>
<path class="st1" d="M139.4,74.1C88.6,24.1,36-10.3,13.4,2.7c-25.9,14.9-14.5,93.8,35.9,194"/>
<path class="st1" d="M259.9,74.1c50.8-49.9,103.4-84.3,126-71.3c25.9,14.9,14.5,93.8-35.9,194"/>
<path class="st2" d="M125.6,86.8C88.8,50.6,50.6,25.6,34.3,35c-18.8,10.8-10.5,68,26,140.8"/>
<path class="st2" d="M273.6,86.8c36.8-36.2,75-61.2,91.4-51.7c18.8,10.8,10.5,68-26,140.8"/>
<path class="st1" d="M364.9,267.2c0,123.3-330.6,123.3-330.6,0c0-0.4,0-0.8,0-1.2c0.2-44.5,10-86,26.8-120.7
	c6.5-13.5,14.3-26.3,23.3-38.3c29.8-39.1,70.4-63.2,115.2-63.2C290.9,43.9,364.9,143.9,364.9,267.2z"/>
<circle class="st3" cx="127.8" cy="164.1" r="22.1"/>
<circle class="st4" cx="123" cy="156.8" r="6.9"/>
<circle class="st3" cx="271.5" cy="164.1" r="22.1"/>
<circle class="st4" cx="266.7" cy="156.8" r="6.9"/>
<ellipse class="st2" cx="199.6" cy="267.1" rx="94.8" ry="75.7"/>
<ellipse class="st2" cx="199.6" cy="194.3" rx="24.6" ry="80.5"/>
<path class="st3" d="M220.4,222.2c5,9.6-6.4,30.3-21.2,30.1c-14.6-0.2-25-22.3-20.4-30.1C184.9,210.4,214.6,211,220.4,222.2z"/>
<path class="st3" d="M199.6,303"/>
<path class="st5" d="M199.6,287.9c-8.3,0-16.5-2.3-23.5-6.6c0,0.7,0,1.3,0,2c0,21.9,10.6,39.7,23.6,39.7s23.6-17.8,23.6-39.7
	c0-0.7,0-1.3,0-2C216.1,285.6,207.9,287.9,199.6,287.9z"/>
<path class="st6" d="M196.6,290.5v18.6c0,1.7,1.3,3,3,3s3-1.3,3-3v-18.6c0-1.7-1.3-3-3-3S196.6,288.8,196.6,290.5z"/>
<path class="st3" d="M144.6,273.6c3.3,2.2,6.8,4.2,10.5,5.8c9,4.3,18.5,7.3,28.4,9c6.3,1.1,12.7,1.5,19.1,1.3
	c6.3-0.3,12.5-1,18.7-2.2c8.5-1.6,16.7-4.4,24.5-8.2c3.6-1.7,6.9-3.9,10-6.4c1.7-1.8,1.7-4.6,0-6.4c-1.8-1.7-4.6-1.7-6.4,0
	c-0.1,0.1-0.3,0.2-0.5,0.4c-0.6,0.5,1.2-0.9,0.3-0.2c-0.3,0.2-0.5,0.4-0.8,0.6c-1.7,1.2-3.5,2.3-5.3,3.3c-1.3,0.7-2.6,1.4-4,2
	c-0.8,0.4-1.5,0.7-2.3,1c-0.6,0.2,1.1-0.5,0.2-0.1l-0.7,0.3l-1.4,0.5c-4.1,1.6-8.3,2.9-12.6,3.8c-2.5,0.6-5.1,1.1-7.6,1.5l-2,0.3
	c1.1-0.2-0.3,0-0.4,0l-0.8,0.1c-1.5,0.2-3.1,0.3-4.6,0.4c-6.2,0.5-12.5,0.3-18.7-0.4c-0.9-0.1-0.2,0,0,0l-1.2-0.2l-2-0.3
	c-1.4-0.2-2.8-0.5-4.2-0.8c-2.5-0.5-5-1.2-7.5-1.9c-2.2-0.7-4.5-1.4-6.6-2.2c-1-0.4-2-0.8-3-1.2l-0.7-0.3c-0.4-0.1-1-0.6,0,0
	c-0.5-0.2-0.9-0.4-1.4-0.6c-4.4-1.8-8.5-4.1-12.5-6.7c-2.1-1.2-4.9-0.5-6.1,1.6c-1.2,2.2-0.5,4.9,1.6,6.2L144.6,273.6z"/>
</svg>
