<svg id="Ebene_1" data-name="Ebene 1" xmlns="http://www.w3.org/2000/svg" viewBox="0 0 1349.64 382.53"><defs><style>.cls-1{font-size:268.14px;font-family:Quicksand-Bold, Quicksand;font-weight:700;}.cls-1,.cls-5{fill:#ffcb8e;}.cls-2{letter-spacing:-0.03em;}.cls-3,.cls-4{fill:#ffa88e;}.cls-4{letter-spacing:-0.01em;}.cls-6{fill:#ffdbb1;}.cls-7{fill:#2c2f33;}.cls-8{fill:#f3f3f3;}.cls-9{fill:#ff8f6e;}</style></defs><text class="cls-1" transform="translate(0 264.6)"><tspan class="cls-2">K</tspan><tspan class="cls-3" x="167.58" y="0">O</tspan><tspan class="cls-4" x="371.1" y="0">R</tspan><tspan class="cls-3" x="552.63" y="0">G</tspan><tspan x="739.25" y="0">I</tspan></text><rect class="cls-3" x="894.16" width="455.48" height="382.53" rx="29.73"/><path class="cls-3" d="M1250.1,348.74a6.38,6.38,0,0,1,5.53,9.56L1228,406.15,1200.38,454a6.38,6.38,0,0,1-11.05,0l-27.62-47.84-27.62-47.85a6.37,6.37,0,0,1,5.52-9.56H1250.1Z" transform="translate(-285.18 -348.74)"/><path class="cls-5" d="M1362.14,464.31c-37.88-37.26-77.16-62.91-94-53.21-19.31,11.15-10.83,70,26.76,144.77" transform="translate(-285.18 -348.74)"/><path class="cls-5" d="M1452,464.31c37.88-37.26,77.15-62.91,94-53.21,19.32,11.15,10.83,70-26.75,144.77" transform="translate(-285.18 -348.74)"/><path class="cls-6" d="M1351.88,473.78c-27.47-27-56-45.63-68.16-38.59-14,8.09-7.86,50.76,19.4,105" transform="translate(-285.18 -348.74)"/><path class="cls-6" d="M1462.28,473.78c27.48-27,56-45.63,68.17-38.59,14,8.09,7.86,50.76-19.41,105" transform="translate(-285.18 -348.74)"/><path class="cls-5" d="M1530.4,608.39c0,92-246.63,92-246.63,0v-.87c.13-33.22,7.44-64.14,20-90.06a166.62,166.62,0,0,1,17.4-28.55c22.21-29.18,52.53-47.15,85.95-47.15C1475.19,441.76,1530.4,516.37,1530.4,608.39Z" transform="translate(-285.18 -348.74)"/><circle class="cls-7" cx="1068.32" cy="182.77" r="16.46"/><circle class="cls-8" cx="1064.77" cy="177.28" r="5.17"/><circle class="cls-7" cx="1175.49" cy="182.77" r="16.46"/><circle class="cls-8" cx="1171.94" cy="177.28" r="5.17"/><ellipse class="cls-6" cx="1121.9" cy="259.6" rx="70.71" ry="56.49"/><ellipse class="cls-6" cx="1121.9" cy="205.28" rx="18.38" ry="60.04"/><path class="cls-7" d="M1422.57,574.83c3.72,7.19-4.77,22.59-15.83,22.43-10.87-.16-18.67-16.61-15.2-22.43C1396.11,566,1418.24,566.48,1422.57,574.83Z" transform="translate(-285.18 -348.74)"/><path class="cls-7" d="M1407.08,635.13" transform="translate(-285.18 -348.74)"/><path class="cls-3" d="M1407.08,623.81a33.62,33.62,0,0,1-17.57-4.92c0,.49,0,1,0,1.48,0,16.34,7.88,29.58,17.59,29.58s17.6-13.24,17.6-29.58c0-.5,0-1,0-1.48A33.62,33.62,0,0,1,1407.08,623.81Z" transform="translate(-285.18 -348.74)"/><path class="cls-9" d="M1404.08,625.77v13.88a3,3,0,1,0,6,0V625.77a3,3,0,0,0-6,0Z" transform="translate(-285.18 -348.74)"/><path class="cls-7" d="M1365.43,614.16a51.37,51.37,0,0,0,7.78,4.32,81.73,81.73,0,0,0,21.5,6.81c15.8,2.57,32.87.37,47.22-6.88a37.48,37.48,0,0,0,7.72-5,4.53,4.53,0,0,0,0-6.36,4.62,4.62,0,0,0-6.37,0c-.09.08-.26.17-.32.27s1.17-.88.46-.37l-.62.46a44.3,44.3,0,0,1-3.9,2.4c-1,.53-2,1-3,1.51-.54.26-1.1.49-1.64.74s.91-.37.38-.16l-.48.2-1.12.44a69.6,69.6,0,0,1-9.36,2.84q-2.78.65-5.6,1.09l-1.55.23c1-.14-.57.06-.81.09-1.11.13-2.23.23-3.35.32a75.91,75.91,0,0,1-13.65-.3c-.72-.07.69.1,0,0l-.8-.12-1.38-.22c-1.09-.19-2.17-.4-3.25-.63q-2.77-.6-5.5-1.41-2.55-.75-5-1.68c-.72-.26-1.43-.54-2.14-.83-.14-.06-1.38-.52-.66-.27s-.53-.23-.74-.32a54.62,54.62,0,0,1-9.21-5,4.53,4.53,0,0,0-6.16,1.62,4.62,4.62,0,0,0,1.62,6.16Z" transform="translate(-285.18 -348.74)"/></svg>